<?xml version="1.0" encoding="UTF-8" standalone="no"?>
<!-- Created with Inkscape (http://www.inkscape.org/) -->

<svg
   xmlns:dc="http://purl.org/dc/elements/1.1/"
   xmlns:cc="http://creativecommons.org/ns#"
   xmlns:rdf="http://www.w3.org/1999/02/22-rdf-syntax-ns#"
   xmlns:svg="http://www.w3.org/2000/svg"
   xmlns="http://www.w3.org/2000/svg"
   xmlns:sodipodi="http://sodipodi.sourceforge.net/DTD/sodipodi-0.dtd"
   xmlns:inkscape="http://www.inkscape.org/namespaces/inkscape"
   width="256"
   height="256"
   id="svg3772"
   version="1.1"
   inkscape:version="0.48.4 r9939"
   inkscape:export-filename="C:\Users\Tim\Desktop\web\img\profile.png"
   inkscape:export-xdpi="90"
   inkscape:export-ydpi="90"
   sodipodi:docname="New document 4">
  <defs
     id="defs3774" />
  <sodipodi:namedview
     id="base"
     pagecolor="#ffffff"
     bordercolor="#666666"
     borderopacity="1.0"
     inkscape:pageopacity="0.0"
     inkscape:pageshadow="2"
     inkscape:zoom="1.979899"
     inkscape:cx="28.842906"
     inkscape:cy="116.01358"
     inkscape:document-units="px"
     inkscape:current-layer="layer1"
     showgrid="false"
     inkscape:window-width="1920"
     inkscape:window-height="1018"
     inkscape:window-x="-8"
     inkscape:window-y="-8"
     inkscape:window-maximized="1" />
  <metadata
     id="metadata3777">
    <rdf:RDF>
      <cc:Work
         rdf:about="">
        <dc:format>image/svg+xml</dc:format>
        <dc:type
           rdf:resource="http://purl.org/dc/dcmitype/StillImage" />
        <dc:title></dc:title>
      </cc:Work>
    </rdf:RDF>
  </metadata>
  <g
     inkscape:label="Layer 1"
     inkscape:groupmode="layer"
     id="layer1"
     transform="translate(0,-796.36218)">
    <path
       transform="translate(0.30859167,796.26945)"
       sodipodi:type="arc"
       style="color:#000000;fill:#2c3e50;fill-opacity:1;fill-rule:nonzero;stroke:none;stroke-width:0.5;marker:none;visibility:visible;display:inline;overflow:visible;enable-background:accumulate"
       id="path2991"
       sodipodi:cx="128.0103"
       sodipodi:cy="127.98305"
       sodipodi:rx="126.8664"
       sodipodi:ry="126.8664"
       d="m 254.8767,127.98305 a 126.8664,126.8664 0 1 1 -253.732802,0 126.8664,126.8664 0 1 1 253.732802,0 z" />
    <path
       style="color:#000000;fill:#e9c29c;fill-opacity:1;fill-rule:nonzero;stroke:none;stroke-width:0.5;marker:none;visibility:visible;display:inline;overflow:visible;enable-background:accumulate"
       d="m 65.871844,1007.1578 24.906473,7.3237 2.911622,8.3855 c -4.528989,2.9571 -24.861224,4.9315 -27.818095,-15.7092 z"
       id="rect4442"
       inkscape:connector-curvature="0"
       sodipodi:nodetypes="cccc" />
    <rect
       style="color:#000000;fill:#00725b;fill-opacity:1;fill-rule:nonzero;stroke:none;stroke-width:0.5;marker:none;visibility:visible;display:inline;overflow:visible;enable-background:accumulate"
       id="rect3914"
       width="28.789347"
       height="95.964493"
       x="341.522"
       y="854.03442"
       transform="matrix(0.9610884,0.27624098,-0.27624098,0.9610884,0,0)"
       ry="0" />
    <path
       style="color:#000000;fill:#e9c29c;fill-opacity:1;fill-rule:nonzero;stroke:none;stroke-width:0.5;marker:none;visibility:visible;display:inline;overflow:visible;enable-background:accumulate"
       d="m 190.67979,1007.5366 -24.90647,7.3237 -2.91163,8.3855 c 4.52899,2.9571 24.86123,4.9315 27.8181,-15.7092 z"
       id="rect4442-8"
       inkscape:connector-curvature="0"
       sodipodi:nodetypes="cccc" />
    <rect
       style="color:#000000;fill:#00725b;fill-opacity:1;fill-rule:nonzero;stroke:none;stroke-width:0.5;marker:none;visibility:visible;display:inline;overflow:visible;enable-background:accumulate"
       id="rect3914-8"
       width="28.789347"
       height="95.964493"
       x="95.029762"
       y="925.14551"
       transform="matrix(-0.9610884,0.27624098,0.27624098,0.9610884,0,0)"
       ry="0" />
    <path
       style="color:#000000;fill:#008066;fill-opacity:1;fill-rule:nonzero;stroke:none;stroke-width:0.5;marker:none;visibility:visible;display:inline;overflow:visible;enable-background:accumulate"
       d="m 116.33378,901.21936 23.761,0 c 15.53863,0 27.25419,12.52973 28.04807,28.04807 l 4,78.18957 c 0.79388,15.5183 -12.50944,28.0481 -28.04807,28.0481 l -31.761,0 c -15.538627,0 -28.841948,-12.5298 -28.048067,-28.0481 l 4,-78.18957 c 0.793883,-15.51834 12.509437,-28.04807 28.048067,-28.04807 z"
       id="rect3832"
       inkscape:connector-curvature="0"
       sodipodi:nodetypes="sssssssss" />
    <path
       sodipodi:type="arc"
       style="color:#000000;fill:#e9c29c;fill-opacity:1;fill-rule:nonzero;stroke:none;stroke-width:0.5;marker:none;visibility:visible;display:inline;overflow:visible;enable-background:accumulate"
       id="path3787"
       sodipodi:cx="129.8046"
       sodipodi:cy="82.253761"
       sodipodi:rx="26.769043"
       sodipodi:ry="20.708128"
       d="m 156.57364,82.253761 a 26.769043,20.708128 0 1 1 -53.53809,0 26.769043,20.708128 0 1 1 53.53809,0 z"
       transform="matrix(1.38,0,0,1.6829268,-49.830813,738.96046)" />
    <path
       sodipodi:type="arc"
       style="color:#000000;fill:#f9f9f9;fill-opacity:1;fill-rule:nonzero;stroke:none;stroke-width:0.50000000000000000;marker:none;visibility:visible;display:inline;overflow:visible;enable-background:accumulate"
       id="path3810"
       sodipodi:cx="-133.75"
       sodipodi:cy="12.964285"
       sodipodi:rx="26.25"
       sodipodi:ry="16.607143"
       d="m -107.5,12.964285 a 26.25,16.607143 0 1 1 -52.49804,-0.202688 l 26.24804,0.202688 z"
       transform="translate(263.57143,877.07647)"
       sodipodi:start="0"
       sodipodi:end="3.1537978" />
    <path
       sodipodi:type="arc"
       style="color:#000000;fill:#000000;fill-opacity:1;fill-rule:nonzero;stroke:none;stroke-width:0.5;marker:none;visibility:visible;display:inline;overflow:visible;enable-background:accumulate"
       id="path3812"
       sodipodi:cx="-131.78572"
       sodipodi:cy="41.535713"
       sodipodi:rx="5"
       sodipodi:ry="5.5357141"
       d="m -126.78572,41.535713 a 5,5.5357141 0 1 1 -10,0 5,5.5357141 0 1 1 10,0 z"
       transform="translate(275,832.00504)" />
    <path
       sodipodi:type="arc"
       style="color:#000000;fill:#000000;fill-opacity:1;fill-rule:nonzero;stroke:none;stroke-width:0.5;marker:none;visibility:visible;display:inline;overflow:visible;enable-background:accumulate"
       id="path3812-1"
       sodipodi:cx="-131.78572"
       sodipodi:cy="41.535713"
       sodipodi:rx="5"
       sodipodi:ry="5.5357141"
       d="m -126.78572,41.535713 a 5,5.5357141 0 1 1 -10,0 5,5.5357141 0 1 1 10,0 z"
       transform="translate(247,832.00504)" />
    <path
       transform="matrix(-0.93479547,0.35518645,-0.35518645,-0.93479547,-1.6985434,919.31263)"
       style="color:#000000;fill:#492a15;fill-opacity:1;fill-rule:nonzero;stroke:none;stroke-width:0.5;marker:none;visibility:visible;display:inline;overflow:visible;enable-background:accumulate"
       d="m -106.59026,12.832383 c 0,9.171872 -12.66227,16.739045 -27.15974,16.739045 -8.6699,0 -28.10647,-6.932036 -32.46929,-15.648662 -1.89449,-3.785047 -0.59931,-7.8568021 -0.59931,-11.5436357 8.39868,-3.4954556 24.28913,9.7125877 33.06864,10.5851547 9.52656,3.333186 27.1597,-0.131902 27.1597,-0.131902 z"
       id="path3810-7"
       inkscape:connector-curvature="0"
       sodipodi:nodetypes="cssccc" />
    <path
       style="color:#000000;fill:#492a15;fill-opacity:1;fill-rule:nonzero;stroke:none;stroke-width:0.5;marker:none;visibility:visible;display:inline;overflow:visible;enable-background:accumulate"
       d="m 165.20879,872.39645 c 2.81757,-0.66602 -3.30724,-14.37079 -9.64109,-20.87123 -6.33385,-6.50042 -11.40682,-6.90637 -15.29581,-2.66892 -0.0287,0.0312 6.76143,3.7245 11.40539,8.17572 0,0 5.48673,4.0375 9.52734,15.02291 z"
       id="path3810-7-4"
       inkscape:connector-curvature="0"
       sodipodi:nodetypes="cscccc" />
    <path
       sodipodi:type="arc"
       style="color:#000000;fill:#ffffff;fill-opacity:1;fill-rule:nonzero;stroke:none;stroke-width:0.5;marker:none;visibility:visible;display:inline;overflow:visible;enable-background:accumulate"
       id="path3812-1-9"
       sodipodi:cx="-131.78572"
       sodipodi:cy="41.535713"
       sodipodi:rx="5"
       sodipodi:ry="5.5357141"
       d="m -126.78572,41.535713 a 5,5.5357141 0 1 1 -10,0 5,5.5357141 0 1 1 10,0 z"
       transform="matrix(0.3157031,0,0,0.3157031,158.5669,858.4278)" />
    <path
       sodipodi:type="arc"
       style="color:#000000;fill:#ffffff;fill-opacity:1;fill-rule:nonzero;stroke:none;stroke-width:0.5;marker:none;visibility:visible;display:inline;overflow:visible;enable-background:accumulate"
       id="path3812-1-9-4"
       sodipodi:cx="-131.78572"
       sodipodi:cy="41.535713"
       sodipodi:rx="5"
       sodipodi:ry="5.5357141"
       d="m -126.78572,41.535713 a 5,5.5357141 0 1 1 -10,0 5,5.5357141 0 1 1 10,0 z"
       transform="matrix(0.3157031,0,0,0.3157031,186.5669,858.4278)" />
  </g>
</svg>
